# xmcd
#
# Track frame offsets: 
#        150
#        18012
#        25690
#        39692
#        54065
#        64645
#        79300
#        94722
#        108807
#        118750
#        138347
#        146685
#        157937
#        170960
#        180437
#
# Disc length: 2684 seconds
#
# Revision: 11
# Processed by: cddbd v1.5.2PL0 Copyright (c) Steve Scherf et al.
# Submitted via: ExactAudioCopyFreeDBPlugin 1.0
#
DISCID=b80a7a0f
DTITLE=Marty Robbins - Gunfighter Ballads and Trail Songs
DYEAR=1959
DGENRE=Country
TTITLE0=Big Iron
TTITLE1=A Hundred and Sixty Acres
TTITLE2=They're Hanging Me Tonight
TTITLE3=Cool Water
TTITLE4=Billy the Kid
TTITLE5=Utah Carol
TTITLE6=The Strawberry Roan
TTITLE7=The Master's Call
TTITLE8=Running Gun
TTITLE9=El Paso
TTITLE10=In the Valley
TTITLE11=The Little Green Valley
TTITLE12=The Hanging Tree
TTITLE13=Saddle Tramp
TTITLE14=El Paso (Full Length Version)
EXTD=
EXTT0=
EXTT1=
EXTT2=
EXTT3=
EXTT4=
EXTT5=
EXTT6=
EXTT7=
EXTT8=
EXTT9=
EXTT10=
EXTT11=
EXTT12=
EXTT13=
EXTT14=
PLAYORDER=
